<svg width="32" height="32" viewBox="0 0 32 32" fill="none" xmlns="http://www.w3.org/2000/svg">
<path d="M27.4676 11.4459V4.70577H21.8936V7.1579L15.9999 2.62402L0 14.9326L3.35212 19.29L4.99344 18.0273V29.3763H14.4634V21.061H17.9103V29.3763H27.0068V18.0273L28.6481 19.29L32 14.9326L27.4676 11.4459ZM25.1295 27.4991H19.7874V19.1838H12.5861V27.4991H6.87056V16.5832L16 9.56046L25.1294 16.5832L25.1295 27.4991ZM28.3047 16.6575L16 7.19165L3.69531 16.6575L2.63244 15.2759L16 4.9924L23.7708 10.9704V6.58296H25.5904V12.3702L29.3675 15.2759L28.3047 16.6575Z" fill="#21446F"/>
</svg>
