<svg width="40" height="40" viewBox="0 0 40 40" fill="none" xmlns="http://www.w3.org/2000/svg">
<g clip-path="url(#clip0_35_3595)">
<mask id="mask0_35_3595" style="mask-type:luminance" maskUnits="userSpaceOnUse" x="0" y="0" width="40" height="40">
<path d="M0 3.8147e-06H40V40H0V3.8147e-06Z" fill="white"/>
</mask>
<g mask="url(#mask0_35_3595)">
<path d="M20 7.82013e-05C13.5312 7.82013e-05 8.28125 5.25008 8.28125 11.7188C8.28125 16.0782 10.672 19.875 14.211 21.8906L20 19.922L25.8124 21.8906C29.3516 19.875 31.7188 16.0782 31.7188 11.7188C31.7188 5.25008 26.4688 7.82013e-05 20 7.82013e-05Z" fill="#FF6666"/>
<path d="M25.8124 21.8906C29.3515 19.875 31.7188 16.0782 31.7188 11.7188C31.7188 5.25 26.4688 7.82013e-05 20 7.82013e-05V19.922L25.8124 21.8906Z" fill="#E62E6B"/>
<path d="M20 15.2344C17.4159 15.2344 15.3125 13.1321 15.3125 10.5469C15.3125 7.96164 17.4159 5.85938 20 5.85938C22.5841 5.85938 24.6875 7.96164 24.6875 10.5469C24.6875 13.1321 22.5841 15.2344 20 15.2344Z" fill="#FFE6CC"/>
<path d="M25.8122 21.8905C24.1013 22.875 22.1092 23.4375 19.9998 23.4375C17.8903 23.4375 15.9216 22.875 14.2107 21.8905C13.7185 18.3047 16.4841 15.2344 19.9998 15.2344C23.4919 15.2344 26.2809 18.3047 25.8122 21.8905Z" fill="#6699FF"/>
<path d="M39.8667 31.798L35.0465 31.0977L32.8904 26.7306L30.7343 31.0977L26.4451 31.7209L22.1559 31.0977L19.9998 26.7306L17.8437 31.0977L13.5545 31.7209L9.26523 31.0977L7.10914 26.7306L4.95305 31.0977L0.132812 31.798L3.62101 35.1981L2.79703 40L7.10914 37.733L11.4213 40L10.5973 35.1981L13.5545 32.3156L16.5116 35.1981L15.6877 40L19.9998 37.733L24.3119 40L23.488 35.1981L26.4451 32.3156L29.4023 35.1981L28.5783 40L32.8904 37.733L37.2025 40L36.3786 35.1981L39.8667 31.798Z" fill="#FFDA45"/>
<path d="M25.8124 21.8905C26.2812 18.3047 23.4921 15.2344 20 15.2344V23.4375C22.1095 23.4375 24.1016 22.875 25.8124 21.8905Z" fill="#6666FF"/>
<path d="M24.6875 10.5469C24.6875 7.96164 22.5841 5.85938 20 5.85938V15.2344C22.5841 15.2344 24.6875 13.1321 24.6875 10.5469Z" fill="#FFCCB3"/>
<path d="M24.3121 40L23.4881 35.198L26.4453 32.3156L29.4024 35.198L28.5784 40L32.8906 37.7329L37.2027 40L36.3787 35.198L39.867 31.798L35.0466 31.0977L32.8906 26.7305L30.7345 31.0977L26.4453 31.7209L22.156 31.0977L20 26.7305V37.7329L24.3121 40Z" fill="#FFBE40"/>
</g>
</g>
<defs>
<clipPath id="clip0_35_3595">
<rect width="40" height="40" fill="white"/>
</clipPath>
</defs>
</svg>
