<svg width="32" height="32" viewBox="0 0 32 32" fill="none" xmlns="http://www.w3.org/2000/svg">
<g clip-path="url(#clip0_35_589)">
<path d="M19.7497 7.49985C19.7497 5.43218 18.0675 3.75 15.9998 3.75C13.9322 3.75 12.25 5.43218 12.25 7.49985C12.25 9.56751 13.9322 11.2497 15.9998 11.2497C18.0675 11.2497 19.7497 9.56751 19.7497 7.49985ZM15.9998 9.37477C14.966 9.37477 14.1249 8.53368 14.1249 7.49985C14.1249 6.46601 14.966 5.62492 15.9998 5.62492C17.0337 5.62492 17.8748 6.46601 17.8748 7.49985C17.8748 8.53368 17.0337 9.37477 15.9998 9.37477Z" fill="#21446F"/>
<path d="M16.0001 18.7492C21.1693 18.7492 25.3747 14.5438 25.3747 9.37462C25.3747 4.20545 21.1693 0 16.0001 0C10.8309 0 6.62549 4.20545 6.62549 9.37462C6.62549 14.5438 10.8309 18.7492 16.0001 18.7492ZM12.3686 15.9344C12.786 14.2986 14.2587 13.1245 16.0001 13.1245C17.7415 13.1245 19.2143 14.2986 19.6316 15.9344C18.555 16.5328 17.3167 16.8743 16.0001 16.8743C14.6835 16.8743 13.4453 16.5328 12.3686 15.9344ZM16.0001 1.87492C20.1354 1.87492 23.4998 5.23928 23.4998 9.37462C23.4998 11.4863 22.6222 13.3966 21.2131 14.7608C20.8995 13.9877 20.4152 13.2871 19.7855 12.7139C18.7481 11.7696 17.4038 11.2495 16.0001 11.2495C14.5964 11.2495 13.2521 11.7696 12.2148 12.7139C11.585 13.2871 11.1007 13.9876 10.7872 14.7608C9.378 13.3966 8.50041 11.4863 8.50041 9.37462C8.50041 5.23928 11.8648 1.87492 16.0001 1.87492Z" fill="#21446F"/>
<path d="M31.8929 25.4395L28.0366 24.8792L26.312 21.3848L24.5874 24.8792L21.1559 25.3778L17.7245 24.8792L15.9999 21.3848L14.2753 24.8792L10.8439 25.3778L7.41245 24.8792L5.68783 21.3848L3.96321 24.8792L0.106934 25.4396L2.89738 28.1596L2.23866 32.0003L5.68783 30.187L9.137 32.0003L8.47828 28.1596L10.8439 25.8537L13.2095 28.1596L12.5507 32.0003L15.9999 30.187L19.4491 32.0003L18.7904 28.1596L21.1559 25.8537L23.5215 28.1596L22.8628 32.0003L26.312 30.187L29.7612 32.0003L29.1024 28.1596L31.8929 25.4395ZM6.64685 28.5729L5.68783 28.0687L4.72881 28.5729L4.91199 27.505L4.13608 26.7487L5.20829 26.5929L5.68783 25.6213L6.16737 26.5929L7.23958 26.7487L6.46367 27.505L6.64685 28.5729ZM16.9589 28.5729L15.9999 28.0687L15.0409 28.5729L15.2241 27.505L14.4482 26.7487L15.5204 26.5929L15.9999 25.6213L16.4795 26.5929L17.5517 26.7487L16.7758 27.505L16.9589 28.5729ZM27.271 28.5729L26.312 28.0687L25.353 28.5729L25.5361 27.505L24.7602 26.7487L25.8324 26.5929L26.312 25.6213L26.7915 26.5929L27.8637 26.7487L27.0878 27.505L27.271 28.5729Z" fill="#21446F"/>
</g>
<defs>
<clipPath id="clip0_35_589">
<rect width="32" height="32" fill="white"/>
</clipPath>
</defs>
</svg>
