<svg width="32" height="32" viewBox="0 0 32 32" fill="none" xmlns="http://www.w3.org/2000/svg">
<g clip-path="url(#clip0_35_594)">
<path d="M31.1664 12.6055L28.8433 12.3463C28.5683 11.3854 28.1855 10.4601 27.7001 9.5825L29.1922 7.76394C29.4981 7.391 29.4712 6.84675 29.1299 6.50594L25.5695 2.95031C25.2319 2.61313 24.6951 2.58325 24.3223 2.88088L22.4779 4.35256C21.6017 3.86606 20.6771 3.4815 19.7163 3.20412L19.4817 0.84475C19.4341 0.36525 19.0307 0 18.5488 0H13.5137C13.0362 0 12.6351 0.358812 12.582 0.83325L12.3179 3.194C11.3513 3.47031 10.4208 3.85506 9.53869 4.34331L7.73094 2.86413C7.35831 2.55925 6.81537 2.58619 6.47475 2.92637L2.91438 6.482C2.57619 6.81969 2.54619 7.35781 2.84481 7.731L4.31069 9.56312C3.82631 10.4355 3.4435 11.3556 3.16706 12.3116L0.845 12.5419C0.365375 12.5894 0 12.9929 0 13.4748V18.5032C0 18.9807 0.358938 19.382 0.833562 19.4349L3.15675 19.6941C3.43181 20.6551 3.8145 21.5804 4.29987 22.4579L2.80781 24.2764C2.50187 24.6494 2.52881 25.1936 2.87013 25.5344L6.4305 29.0901C6.768 29.4272 7.30481 29.4571 7.67775 29.1595L9.52206 27.6879C10.3997 28.1751 11.3256 28.5601 12.2878 28.8375L12.5183 31.1553C12.566 31.6348 12.9694 32.0001 13.4512 32.0001H18.4863C18.9638 32.0001 19.3649 31.6413 19.418 31.1668L19.6774 28.8478C20.6349 28.5745 21.5571 28.1947 22.4319 27.7135L24.2691 29.2167C24.6416 29.5217 25.1846 29.4947 25.5253 29.1546L29.0857 25.5989C29.4239 25.2612 29.4539 24.7231 29.1553 24.3499L27.6761 22.5012C28.1668 21.6217 28.5541 20.6936 28.833 19.729L31.155 19.4987C31.6346 19.4511 32 19.0477 32 18.5658V13.5373C32 13.0596 31.6411 12.6584 31.1664 12.6055ZM30.125 17.7165L27.999 17.9273C27.6001 17.9669 27.2704 18.2558 27.1788 18.6461C26.8934 19.8629 26.4109 21.0197 25.745 22.0842C25.5338 22.4219 25.5589 22.8562 25.8078 23.1671L27.1666 24.8654L24.8002 27.2286L23.1157 25.8502C22.8061 25.5969 22.3698 25.5679 22.0294 25.7781C20.9678 26.4338 19.8159 26.9083 18.6059 27.1886C18.2186 27.2783 17.9301 27.6026 17.8859 27.9976L17.6479 30.125H14.3001L14.0891 28.0027C14.0494 27.6036 13.7603 27.274 13.3698 27.1826C12.1551 26.8984 11.0001 26.4187 9.93669 25.7569C9.59956 25.5472 9.16694 25.5725 8.85656 25.8201L7.16294 27.1716L4.79669 24.8084L6.16388 23.1421C6.41844 22.8317 6.44725 22.3938 6.2355 22.0528C5.57494 20.9892 5.09713 19.8349 4.81531 18.6218C4.72537 18.2346 4.40112 17.9462 4.00606 17.9022L1.875 17.6644V14.3239L4.001 14.1131C4.39994 14.0736 4.72963 13.7847 4.82119 13.3943C5.10475 12.1856 5.58275 11.0359 6.24188 9.97713C6.452 9.63969 6.42637 9.20638 6.17806 8.89594L4.83344 7.21531L7.19975 4.85219L8.85625 6.20762C9.16656 6.4615 9.60394 6.48994 9.94462 6.27844C11.0122 5.61525 12.1714 5.13562 13.3898 4.85275C13.7769 4.76287 14.0654 4.43875 14.1096 4.04381L14.3521 1.875H17.6999L17.9151 4.03862C17.9548 4.43756 18.2437 4.76713 18.634 4.85862C19.8475 5.14306 21.0012 5.62244 22.0632 6.28344C22.4003 6.49306 22.833 6.46788 23.1434 6.22025L24.8371 4.86875L27.2034 7.23187L25.8362 8.89819C25.5816 9.2085 25.5528 9.6465 25.7646 9.98744C26.4252 11.0512 26.903 12.2056 27.1847 13.4185C27.2747 13.8057 27.5989 14.0941 27.994 14.1381L30.125 14.3759V17.7165Z" fill="#21446F"/>
<path d="M16 6.78418C10.9181 6.78418 6.78379 10.9186 6.78379 16.0004C6.76004 21.0986 11.021 25.2488 16 25.2166C21.0395 25.2239 25.2052 21.1203 25.2162 16.0004C25.2162 10.9186 21.0819 6.78418 16 6.78418ZM15.1354 23.2904V19.9756C15.1354 19.6062 14.9184 19.2712 14.5813 19.1201C13.3326 18.5606 12.5258 17.3154 12.5258 15.9477C12.5258 14.9596 12.9429 14.0446 13.6355 13.4009V15.6116C13.6355 15.9283 13.7955 16.2237 14.0609 16.3968L15.4919 17.3301C15.8032 17.5332 16.2049 17.5332 16.5162 17.3301L17.9473 16.3968C18.2127 16.2237 18.3727 15.9284 18.3727 15.6116V13.4087C19.0602 14.0522 19.4743 14.9641 19.4743 15.9477C19.4743 17.3153 18.6675 18.5606 17.4188 19.1201C17.0816 19.2711 16.8647 19.6061 16.8647 19.9756V23.2904C16.581 23.3239 16.2926 23.3416 16.0001 23.3416C15.7075 23.3416 15.419 23.3239 15.1354 23.2904ZM18.7395 22.811V20.5429C20.3426 19.5858 21.3492 17.8431 21.3492 15.9477C21.3492 13.6639 19.8987 11.6306 17.7399 10.8884C17.4534 10.7899 17.137 10.8358 16.8904 11.0118C16.6439 11.1877 16.4975 11.472 16.4975 11.7749V15.1039L16.0039 15.4257L15.5104 15.1039V11.7721C15.5104 11.4695 15.3643 11.1856 15.1182 11.0096C14.872 10.8335 14.556 10.7871 14.2697 10.885C12.105 11.6246 10.6507 13.6592 10.6507 15.9478C10.6507 17.8432 11.6572 19.5859 13.2603 20.543V22.8111C10.5654 21.7231 8.65867 19.0805 8.65867 16.0006C8.65867 11.9526 11.9519 8.65931 15.9999 8.65931C20.0478 8.65931 23.3412 11.9524 23.3412 16.0004C23.3412 19.0804 21.4345 21.723 18.7395 22.811Z" fill="#21446F"/>
</g>
<defs>
<clipPath id="clip0_35_594">
<rect width="32" height="32" fill="white"/>
</clipPath>
</defs>
</svg>
