<svg width="40" height="40" viewBox="0 0 40 40" fill="none" xmlns="http://www.w3.org/2000/svg">
<path d="M38.8281 29.3301H35.0625C34.4153 29.3301 33.8906 28.8054 33.8906 28.1582C33.8906 27.511 34.4153 26.9863 35.0625 26.9863H38.8281C39.4753 26.9863 40 27.511 40 28.1582C40 28.8054 39.4753 29.3301 38.8281 29.3301Z" fill="#1F1442"/>
<path d="M4.9375 13.0127H1.17188C0.524687 13.0127 0 12.488 0 11.8408C0 11.1936 0.524687 10.6689 1.17188 10.6689H4.9375C5.58469 10.6689 6.10938 11.1936 6.10938 11.8408C6.10938 12.488 5.58469 13.0127 4.9375 13.0127Z" fill="#383968"/>
<path d="M21.2552 29.3301H1.17188C0.524687 29.3301 0 28.8054 0 28.1582C0 27.511 0.524687 26.9863 1.17188 26.9863H21.2552C21.9024 26.9863 22.4271 27.511 22.4271 28.1582C22.4271 28.8054 21.9024 29.3301 21.2552 29.3301Z" fill="#383968"/>
<path d="M38.828 13.0127H18.7446C18.0974 13.0127 17.5728 12.488 17.5728 11.8408C17.5728 11.1936 18.0974 10.6689 18.7446 10.6689H38.828C39.4752 10.6689 39.9999 11.1936 39.9999 11.8408C39.9999 12.488 39.4752 13.0127 38.828 13.0127Z" fill="#1F1442"/>
<path d="M33.862 33.8676C37.0151 30.7144 37.0151 25.602 33.862 22.4488C30.7088 19.2957 25.5964 19.2957 22.4432 22.4488C19.2901 25.602 19.2901 30.7144 22.4432 33.8676C25.5964 37.0208 30.7088 37.0207 33.862 33.8676Z" fill="#A0D919"/>
<path d="M17.5482 17.5502C20.7014 14.397 20.7014 9.28463 17.5482 6.13141C14.3949 2.97819 9.28255 2.97819 6.12933 6.13141C2.97611 9.28463 2.97611 14.397 6.12933 17.5502C9.28255 20.7035 14.3949 20.7035 17.5482 17.5502Z" fill="#A0D919"/>
<path d="M11.8413 3.76562C16.2941 3.76562 19.9168 7.38828 19.9168 11.8412C19.9168 16.294 16.2941 19.9166 11.8413 19.9166V3.76562Z" fill="#53CC2F"/>
<path d="M28.1592 20.083C32.6121 20.083 36.2347 23.7057 36.2347 28.1585C36.2347 32.6114 32.6121 36.234 28.1592 36.234V20.083Z" fill="#53CC2F"/>
</svg>
