<svg width="40" height="40" viewBox="0 0 40 40" fill="none" xmlns="http://www.w3.org/2000/svg">
<path d="M40 22.5036V17.6219C40 17.114 39.6183 16.6873 39.1135 16.631L36.7487 16.3672C36.3455 16.3222 36.0079 16.0377 35.9001 15.6465C35.5395 14.3386 35.021 13.0962 34.3671 11.9402C34.1649 11.5829 34.2051 11.1379 34.4655 10.8205L35.9808 8.97352C36.3062 8.57695 36.2775 7.99813 35.9145 7.6357L32.457 4.18281C32.098 3.82438 31.5271 3.79258 31.1306 4.10898L29.247 5.61203C28.9296 5.86523 28.4898 5.90187 28.1369 5.70141C26.982 5.0457 25.7403 4.52508 24.433 4.16148C24.0384 4.05172 23.7532 3.70891 23.7127 3.30141L23.4737 0.898438C23.423 0.388438 22.994 0 22.4816 0H17.5904C17.0827 0 16.656 0.381563 16.5995 0.886172L16.3294 3.30109C16.2843 3.70438 15.9998 4.04187 15.6085 4.14953C14.2931 4.51172 13.0439 5.03289 11.8823 5.69047C11.5254 5.8925 11.0809 5.85266 10.7634 5.59297L8.92977 4.09258C8.53352 3.76836 7.95617 3.79695 7.59391 4.15875L4.13633 7.6118C3.77664 7.97102 3.74477 8.5432 4.06234 8.94016L5.55562 10.8065C5.80961 11.1239 5.84641 11.5643 5.6457 11.9177C4.99281 13.0677 4.4743 14.3035 4.11188 15.6045C4.00195 15.999 3.65914 16.2841 3.25164 16.3245L0.898594 16.5579C0.388594 16.6085 0 17.0375 0 17.5501V22.4318C0 22.9397 0.381719 23.3663 0.886484 23.4227L3.25125 23.6865C3.65453 23.7315 3.99211 24.016 4.09992 24.4072C4.46055 25.7151 4.97898 26.9575 5.63289 28.1134C5.83508 28.4708 5.79492 28.9158 5.53453 29.2332L4.01922 31.0802C3.69383 31.4767 3.7225 32.0555 4.08547 32.418L7.54305 35.8709C7.90203 36.2293 8.47289 36.2611 8.86945 35.9447L10.753 34.4416C11.0704 34.1884 11.5101 34.1518 11.8631 34.3523C13.0195 35.0089 14.263 35.53 15.5723 35.8937C15.967 36.0034 16.2523 36.3463 16.2929 36.7539L16.5263 39.1016C16.577 39.6116 17.006 40 17.5184 40H22.4096C22.9173 40 23.344 39.6184 23.4005 39.1138L23.6645 36.7543C23.7096 36.3508 23.9945 36.0133 24.386 35.9056C25.6895 35.5472 26.9282 35.0327 28.0811 34.3839C28.4377 34.1832 28.8811 34.2234 29.1978 34.4826L31.0702 36.0146C31.4664 36.3388 32.0438 36.3102 32.406 35.9484L35.8636 32.4955C36.2233 32.1362 36.2552 31.5641 35.9376 31.1671L34.4265 29.2784C34.1721 28.9605 34.1355 28.5192 34.3373 28.1655C34.9982 27.0071 35.5226 25.761 35.888 24.4487C35.9979 24.0544 36.3409 23.7694 36.7483 23.729L39.1013 23.4956C39.6114 23.4452 40 23.0162 40 22.5036Z" fill="#5C6C9C"/>
<path d="M39.1135 16.631L36.7488 16.3672C36.3455 16.3222 36.0079 16.0377 35.9 15.6465C35.5394 14.3386 35.021 13.0962 34.367 11.9402C34.1649 11.5829 34.205 11.1379 34.4654 10.8205L35.9807 8.97352C36.3061 8.57695 36.2774 7.9982 35.9145 7.6357L32.457 4.18281C32.098 3.82438 31.5271 3.79258 31.1305 4.10898L29.2469 5.61195C28.9295 5.86516 28.4898 5.9018 28.1368 5.70133C26.982 5.04562 25.7402 4.525 24.4329 4.16141C24.0384 4.05164 23.7531 3.70883 23.7126 3.30133L23.4737 0.898359C23.423 0.388437 22.994 0 22.4816 0H20V40H22.4097C22.9174 40 23.3441 39.6184 23.4005 39.1138L23.6645 36.7543C23.7097 36.3508 23.9946 36.0133 24.3861 35.9056C25.6896 35.5472 26.9283 35.0327 28.0812 34.3839C28.4378 34.1832 28.8812 34.2234 29.1979 34.4826L31.0702 36.0146C31.4665 36.3388 32.0438 36.3102 32.4061 35.9484L35.8637 32.4955C36.2234 32.1362 36.2552 31.5641 35.9377 31.1671L34.4266 29.2784C34.1722 28.9605 34.1356 28.5192 34.3374 28.1655C34.9984 27.0071 35.5227 25.761 35.8882 24.4487C35.998 24.0544 36.341 23.7694 36.7484 23.729L39.1015 23.4956C39.6115 23.4451 40.0001 23.016 40.0001 22.5035V17.6219C40 17.1141 39.6183 16.6873 39.1135 16.631Z" fill="#4E517E"/>
<path d="M19.9998 31.7663C26.498 31.7663 31.7658 26.4985 31.7658 20.0003C31.7658 13.5022 26.498 8.23438 19.9998 8.23438C13.5017 8.23438 8.23389 13.5022 8.23389 20.0003C8.23389 26.4985 13.5017 31.7663 19.9998 31.7663Z" fill="#FFF5F5"/>
<path d="M31.7659 20.0003C31.7659 13.5022 26.4981 8.23438 20 8.23438V31.7663C26.4981 31.7663 31.7659 26.4984 31.7659 20.0003Z" fill="#EBEBF0"/>
<path d="M22.833 13.6834C22.4646 13.495 22.0269 13.7625 22.0269 14.1763V18.4598C22.0269 18.6469 21.9325 18.8212 21.7758 18.9234L20.308 19.8806C20.1243 20.0005 19.8872 20.0005 19.7034 19.8806L18.2356 18.9234C18.079 18.8212 17.9845 18.6469 17.9845 18.4598V14.1705C17.9845 13.757 17.5477 13.4898 17.1792 13.6772C15.1555 14.7064 13.769 16.8084 13.769 19.2343C13.769 21.6482 15.1418 23.7413 17.1491 24.776C17.3353 24.8719 17.4547 25.0612 17.4547 25.2706V30.7233H22.5451V25.2706C22.5451 25.0612 22.6646 24.872 22.8508 24.776C24.8581 23.7413 26.2308 21.6482 26.2308 19.2343C26.231 16.8132 24.8501 14.7148 22.833 13.6834Z" fill="#CFDDE8"/>
<path d="M22.833 13.6835C22.4645 13.4951 22.0269 13.7626 22.0269 14.1764V18.46C22.0269 18.647 21.9324 18.8213 21.7758 18.9235L20.308 19.8807C20.2145 19.9418 20.1071 19.9713 20 19.9702V30.7234H22.5452V25.2707C22.5452 25.0612 22.6646 24.8721 22.8508 24.776C24.8581 23.7414 26.2309 21.6482 26.2309 19.2343C26.2309 16.8133 24.85 14.715 22.833 13.6835Z" fill="#B4C7D3"/>
<path d="M19.9999 32.4314C13.1454 32.4314 7.56885 26.8549 7.56885 20.0004C7.56885 13.1458 13.1454 7.56934 19.9999 7.56934C26.8543 7.56934 32.4309 13.1459 32.4309 20.0004C32.4309 26.8548 26.8543 32.4314 19.9999 32.4314ZM19.9999 9.82129C14.3871 9.82129 9.8208 14.3876 9.8208 20.0004C9.8208 25.6131 14.3871 30.1794 19.9999 30.1794C25.6126 30.1794 30.1789 25.6131 30.1789 20.0004C30.1789 14.3876 25.6126 9.82129 19.9999 9.82129Z" fill="#4E517E"/>
<path d="M32.431 20.0004C32.431 13.1459 26.8545 7.56934 20 7.56934V9.82129C25.6127 9.82129 30.1791 14.3876 30.1791 20.0004C30.1791 25.6131 25.6127 30.1794 20 30.1794V32.4314C26.8545 32.4314 32.431 26.8548 32.431 20.0004Z" fill="#37385D"/>
</svg>
