<svg width="40" height="40" viewBox="0 0 40 40" fill="none" xmlns="http://www.w3.org/2000/svg">
<g clip-path="url(#clip0_35_3625)">
<path d="M7.03125 24.6875V29.375C7.03125 30.0311 6.51581 30.5469 5.85938 30.5469C5.20294 30.5469 4.6875 30.0311 4.6875 29.375V24.6875C4.6875 24.0311 5.20294 23.5156 5.85938 23.5156C6.51581 23.5156 7.03125 24.0311 7.03125 24.6875Z" fill="#575F64"/>
<path d="M7.03125 24.6875V29.375C7.03125 30.0311 6.51581 30.5469 5.85938 30.5469V23.5156C6.51581 23.5156 7.03125 24.0311 7.03125 24.6875Z" fill="#32393F"/>
<path d="M7.03125 10.5469V15.3125C7.03125 15.9686 6.51581 16.4844 5.85938 16.4844C5.20294 16.4844 4.6875 15.9686 4.6875 15.3125V10.5469C4.6875 9.89044 5.20294 9.375 5.85938 9.375C6.51581 9.375 7.03125 9.89044 7.03125 10.5469Z" fill="#575F64"/>
<path d="M7.03125 10.5469V15.3125C7.03125 15.9686 6.51581 16.4844 5.85938 16.4844V9.375C6.51581 9.375 7.03125 9.89044 7.03125 10.5469Z" fill="#32393F"/>
<path d="M11.0623 16.6016L6.37482 14.2578C6.21094 14.1873 6.04675 14.1406 5.85938 14.1406C5.672 14.1406 5.50781 14.1873 5.34393 14.2578L0.656433 16.6016C0.257874 16.8124 0 17.211 0 17.6562V22.3438C0 22.789 0.257874 23.1876 0.656433 23.3984L5.34393 25.7422C5.50781 25.8124 5.672 25.8594 5.85938 25.8594C6.04675 25.8594 6.21094 25.8124 6.37482 25.7422L11.0623 23.3984C11.4609 23.1876 11.7188 22.789 11.7188 22.3438V17.6562C11.7188 17.211 11.4609 16.8124 11.0623 16.6016Z" fill="#FF9100"/>
<path d="M11.7188 17.6562V22.3438C11.7188 22.789 11.4609 23.1876 11.0623 23.3984L6.37482 25.7422C6.21094 25.8124 6.04675 25.8594 5.85938 25.8594V14.1406C6.04706 14.1406 6.21094 14.1873 6.37482 14.2578L11.0623 16.6016C11.4609 16.8124 11.7188 17.211 11.7188 17.6562Z" fill="#FF641A"/>
<path d="M11.0623 2.46094L6.37482 0.117188C6.21094 0.0466919 6.04706 0 5.85938 0C5.67169 0 5.50781 0.0466919 5.34393 0.117188L0.656433 2.46094C0.257874 2.67181 0 3.07037 0 3.51562V8.20312C0 8.64838 0.257874 9.04694 0.656433 9.25781L5.34393 11.6016C5.50781 11.6718 5.672 11.7188 5.85938 11.7188C6.04675 11.7188 6.21094 11.6718 6.37482 11.6016L11.0623 9.25781C11.4609 9.04694 11.7188 8.64838 11.7188 8.20312V3.51562C11.7188 3.07037 11.4609 2.67181 11.0623 2.46094Z" fill="#FF9100"/>
<path d="M11.7188 3.51562V8.20312C11.7188 8.64838 11.4609 9.04694 11.0623 9.25781L6.37482 11.6016C6.21094 11.6718 6.04675 11.7188 5.85938 11.7188V0C6.04706 0 6.21094 0.0466919 6.37482 0.117188L11.0623 2.46094C11.4609 2.67181 11.7188 3.07037 11.7188 3.51562Z" fill="#FF641A"/>
<path d="M11.0623 30.6641L6.37482 28.3203C6.21094 28.2498 6.04675 28.2031 5.85938 28.2031C5.672 28.2031 5.50781 28.2498 5.34393 28.3203L0.656433 30.6641C0.257874 30.8749 0 31.2735 0 31.7188V36.4844C0 36.9296 0.257874 37.3282 0.656433 37.5391L5.34393 39.8828C5.50781 39.953 5.672 40 5.85938 40C6.04675 40 6.21094 39.953 6.37482 39.8828L11.0623 37.5391C11.4609 37.3282 11.7188 36.9296 11.7188 36.4844V31.7188C11.7188 31.2735 11.4609 30.8749 11.0623 30.6641Z" fill="#FF9100"/>
<path d="M11.7188 31.7188V36.4844C11.7188 36.9296 11.4609 37.3282 11.0623 37.5391L6.37482 39.8828C6.21094 39.953 6.04675 40 5.85938 40V28.2031C6.04706 28.2031 6.21094 28.2498 6.37482 28.3203L11.0623 30.6641C11.4609 30.8749 11.7188 31.2735 11.7188 31.7188Z" fill="#FF641A"/>
<path d="M38.8281 4.6875H15.2344C14.5868 4.6875 14.0625 4.16321 14.0625 3.51562C14.0625 2.86804 14.5868 2.34375 15.2344 2.34375H38.8281C39.4757 2.34375 40 2.86804 40 3.51562C40 4.16321 39.4757 4.6875 38.8281 4.6875Z" fill="#00C8C8"/>
<path d="M27.0312 9.375H15.2344C14.5868 9.375 14.0625 8.85071 14.0625 8.20312C14.0625 7.55554 14.5868 7.03125 15.2344 7.03125H27.0312C27.6788 7.03125 28.2031 7.55554 28.2031 8.20312C28.2031 8.85071 27.6788 9.375 27.0312 9.375Z" fill="#00C8C8"/>
<path d="M27.0312 23.5156H15.2344C14.5868 23.5156 14.0625 22.9913 14.0625 22.3438C14.0625 21.6962 14.5868 21.1719 15.2344 21.1719H27.0312C27.6788 21.1719 28.2031 21.6962 28.2031 22.3438C28.2031 22.9913 27.6788 23.5156 27.0312 23.5156Z" fill="#00C8C8"/>
<path d="M27.0312 37.5781H15.2344C14.5868 37.5781 14.0625 37.0538 14.0625 36.4062C14.0625 35.7587 14.5868 35.2344 15.2344 35.2344H27.0312C27.6788 35.2344 28.2031 35.7587 28.2031 36.4062C28.2031 37.0538 27.6788 37.5781 27.0312 37.5781Z" fill="#00C8C8"/>
<path d="M38.8281 18.8281H15.2344C14.5868 18.8281 14.0625 18.3038 14.0625 17.6562C14.0625 17.0087 14.5868 16.4844 15.2344 16.4844H38.8281C39.4757 16.4844 40 17.0087 40 17.6562C40 18.3038 39.4757 18.8281 38.8281 18.8281Z" fill="#00C8C8"/>
<path d="M38.8281 32.8906H15.2344C14.5868 32.8906 14.0625 32.3663 14.0625 31.7188C14.0625 31.0712 14.5868 30.5469 15.2344 30.5469H38.8281C39.4757 30.5469 40 31.0712 40 31.7188C40 32.3663 39.4757 32.8906 38.8281 32.8906Z" fill="#00C8C8"/>
<path d="M7.03125 5.85938C7.03125 6.5155 6.51581 7.03125 5.85938 7.03125C5.20294 7.03125 4.6875 6.5155 4.6875 5.85938C4.6875 5.20294 5.20294 4.6875 5.85938 4.6875C6.51581 4.6875 7.03125 5.20294 7.03125 5.85938Z" fill="#575F64"/>
<path d="M7.03125 20C7.03125 20.6561 6.51581 21.1719 5.85938 21.1719C5.20294 21.1719 4.6875 20.6561 4.6875 20C4.6875 19.3436 5.20294 18.8281 5.85938 18.8281C6.51581 18.8281 7.03125 19.3436 7.03125 20Z" fill="#575F64"/>
<path d="M7.03125 34.0625C7.03125 34.7186 6.51581 35.2344 5.85938 35.2344C5.20294 35.2344 4.6875 34.7186 4.6875 34.0625C4.6875 33.4061 5.20294 32.8906 5.85938 32.8906C6.51581 32.8906 7.03125 33.4061 7.03125 34.0625Z" fill="#575F64"/>
<path d="M7.03125 34.0625C7.03125 34.7186 6.51581 35.2344 5.85938 35.2344V32.8906C6.51581 32.8906 7.03125 33.4061 7.03125 34.0625Z" fill="#32393F"/>
<path d="M7.03125 20C7.03125 20.6561 6.51581 21.1719 5.85938 21.1719V18.8281C6.51581 18.8281 7.03125 19.3436 7.03125 20Z" fill="#32393F"/>
<path d="M5.85938 7.03125V4.6875C6.51581 4.6875 7.03125 5.20294 7.03125 5.85938C7.03125 6.5155 6.51581 7.03125 5.85938 7.03125Z" fill="#32393F"/>
</g>
<defs>
<clipPath id="clip0_35_3625">
<rect width="40" height="40" fill="white"/>
</clipPath>
</defs>
</svg>
