<svg width="32" height="32" viewBox="0 0 32 32" fill="none" xmlns="http://www.w3.org/2000/svg">
<g clip-path="url(#clip0_35_578)">
<path d="M0 6.5625C0 6.91772 0.200684 7.24218 0.51831 7.40112L3.75 9.01684V11.6706L0.51831 13.2864C0.200684 13.4453 0 13.7698 0 14.125V17.875C0 18.2302 0.200684 18.5547 0.51831 18.7136L3.75 20.3293V22.9206L0.51831 24.5364C0.200684 24.6953 0 25.0198 0 25.375V29.125C0 29.4756 0.195557 29.7969 0.50708 29.958L4.25708 31.8955C4.39209 31.9651 4.53979 32 4.6875 32C4.8352 32 4.98291 31.9651 5.11792 31.8955L8.86791 29.958C9.17944 29.7969 9.37499 29.4756 9.37499 29.125V25.375C9.37499 25.0198 9.17431 24.6953 8.85668 24.5364L5.625 22.9206V20.3293L8.85668 18.7136C9.17431 18.5547 9.37499 18.2302 9.37499 17.875V14.125C9.37499 13.7698 9.17431 13.4453 8.85668 13.2864L5.625 11.6706V9.01684L8.85668 7.40112C9.17431 7.24218 9.37499 6.91772 9.37499 6.5625V2.8125C9.37499 2.45727 9.17431 2.13281 8.85668 1.97388L5.10669 0.0988769C4.84277 -0.032959 4.53222 -0.032959 4.26831 0.0988769L0.51831 1.97388C0.200684 2.13281 0 2.45727 0 2.8125V6.5625ZM7.5 28.5542L4.6875 30.0073L1.875 28.5542V25.9543L4.6875 24.5481L7.5 25.9543V28.5542ZM7.5 17.2956L4.6875 18.7019L1.875 17.2956V14.7043L4.6875 13.2981L7.5 14.7043V17.2956ZM1.875 3.39184L4.6875 1.98559L7.5 3.39184V5.98315L4.6875 7.3894L1.875 5.98315V3.39184Z" fill="#21446F"/>
<path d="M31.0625 1.875H12.1875C11.6697 1.875 11.25 2.29468 11.25 2.8125C11.25 3.33032 11.6697 3.75 12.1875 3.75H31.0625C31.5803 3.75 32 3.33032 32 2.8125C32 2.29468 31.5803 1.875 31.0625 1.875Z" fill="#21446F"/>
<path d="M12.1875 7.5H21.625C22.1428 7.5 22.5625 7.08032 22.5625 6.5625C22.5625 6.04468 22.1428 5.625 21.625 5.625H12.1875C11.6697 5.625 11.25 6.04468 11.25 6.5625C11.25 7.08032 11.6697 7.5 12.1875 7.5Z" fill="#21446F"/>
<path d="M12.1875 18.8125H21.625C22.1428 18.8125 22.5625 18.3928 22.5625 17.875C22.5625 17.3572 22.1428 16.9375 21.625 16.9375H12.1875C11.6697 16.9375 11.25 17.3572 11.25 17.875C11.25 18.3928 11.6697 18.8125 12.1875 18.8125Z" fill="#21446F"/>
<path d="M21.625 30.0625C22.1428 30.0625 22.5625 29.6428 22.5625 29.125C22.5625 28.6072 22.1428 28.1875 21.625 28.1875H12.1875C11.6697 28.1875 11.25 28.6072 11.25 29.125C11.25 29.6428 11.6697 30.0625 12.1875 30.0625H21.625Z" fill="#21446F"/>
<path d="M31.0625 13.1875H12.1875C11.6697 13.1875 11.25 13.6072 11.25 14.125C11.25 14.6428 11.6697 15.0625 12.1875 15.0625H31.0625C31.5803 15.0625 32 14.6428 32 14.125C32 13.6072 31.5803 13.1875 31.0625 13.1875Z" fill="#21446F"/>
<path d="M31.0625 24.4375H12.1875C11.6697 24.4375 11.25 24.8572 11.25 25.375C11.25 25.8928 11.6697 26.3125 12.1875 26.3125H31.0625C31.5803 26.3125 32 25.8928 32 25.375C32 24.8572 31.5803 24.4375 31.0625 24.4375Z" fill="#21446F"/>
<path d="M5.62353 4.6875C5.62353 5.20532 5.20361 5.625 4.68603 5.625C4.16821 5.625 3.74854 5.20532 3.74854 4.6875C3.74854 4.16968 4.16821 3.75 4.68603 3.75C5.20361 3.75 5.62353 4.16968 5.62353 4.6875Z" fill="#21446F"/>
<path d="M5.62353 16C5.62353 16.5178 5.20361 16.9375 4.68603 16.9375C4.16821 16.9375 3.74854 16.5178 3.74854 16C3.74854 15.4822 4.16821 15.0625 4.68603 15.0625C5.20361 15.0625 5.62353 15.4822 5.62353 16Z" fill="#21446F"/>
<path d="M5.62353 27.25C5.62353 27.7678 5.20361 28.1875 4.68603 28.1875C4.16821 28.1875 3.74854 27.7678 3.74854 27.25C3.74854 26.7322 4.16821 26.3125 4.68603 26.3125C5.20361 26.3125 5.62353 26.7322 5.62353 27.25Z" fill="#21446F"/>
</g>
<defs>
<clipPath id="clip0_35_578">
<rect width="32" height="32" fill="white"/>
</clipPath>
</defs>
</svg>
